<svg width="17" height="17" viewBox="0 0 17 17" fill="none" xmlns="http://www.w3.org/2000/svg">
<path d="M7.45063 0.5C5.56912 0.5 4.0593 1.79217 4.0593 4.26177C4.0593 5.87449 4.70164 7.51715 5.67701 8.52931C6.05742 9.54147 5.37143 9.91815 5.22924 9.97178C3.26042 10.6939 0.960449 12.0036 0.960449 13.3045V13.7909C0.960449 15.5639 4.33681 15.9737 7.46934 15.9737C8.15209 15.9725 8.83459 15.9467 9.51548 15.8963C8.66288 14.9964 8.18867 13.8033 8.19088 12.5636C8.19088 11.4467 8.5713 10.4233 9.20367 9.60134C9.11012 9.38182 9.0727 9.0357 9.24296 8.50998C10.2127 7.49657 10.8413 5.86826 10.8413 4.26115C10.8413 1.79217 9.32964 0.500624 7.45 0.500624L7.45063 0.5ZM13.0633 8.6266C12.0193 8.6266 11.018 9.04136 10.2797 9.77963C9.54141 10.5179 9.12665 11.5192 9.12665 12.5633C9.12665 13.6074 9.54141 14.6087 10.2797 15.347C11.018 16.0852 12.0193 16.5 13.0633 16.5C14.1074 16.5 15.1087 16.0852 15.847 15.347C16.5853 14.6087 17 13.6074 17 12.5633C17 11.5192 16.5853 10.5179 15.847 9.77963C15.1087 9.04136 14.1074 8.6266 13.0633 8.6266ZM12.5177 10.3809H13.609V11.9986H15.2267V13.1286H13.609V14.7463H12.5177V13.1286H10.8806V11.9986H12.5177V10.3809Z" fill="currentColor"/>
</svg>
