<svg width="16" height="16" viewBox="0 0 16 16" fill="none" xmlns="http://www.w3.org/2000/svg">
<path d="M4.00004 13.3333C4.00004 14.0667 3.93338 14 4.66671 14H11.3334C12.0667 14 12 14.1092 12 13.3759V5.33333C12 4.6 12.0667 4.66667 11.3334 4.66667H4.66671C3.93338 4.66667 4.00004 4.6 4.00004 5.33333V13.3333ZM12.3334 2.66667H10.3334L9.86004 2.19333C9.74004 2.07333 9.56671 2 9.39337 2H6.60671C6.43337 2 6.26004 2.07333 6.14004 2.19333L5.66671 2.66667H3.63915C3.27248 2.66667 3.33337 2.96667 3.33337 3.33333C3.33337 3.7 3.27248 4 3.63915 4H12.3334C12.7 4 12.6667 3.7 12.6667 3.33333C12.6667 2.96667 12.7 2.66667 12.3334 2.66667Z" fill="currentColor"/>
</svg>
