<svg xmlns="http://www.w3.org/2000/svg" width="24" height="25" viewBox="0 0 24 25" fill="none">
    <path d="M22.4997 3.06653H1.49969C1.38183 3.06653 1.2854 3.16296 1.2854 3.28081V4.9951C1.2854 5.11296 1.38183 5.20939 1.49969 5.20939H22.4997C22.6175 5.20939 22.714 5.11296 22.714 4.9951V3.28081C22.714 3.16296 22.6175 3.06653 22.4997 3.06653ZM22.4997 19.7808H1.49969C1.38183 19.7808 1.2854 19.8772 1.2854 19.9951V21.7094C1.2854 21.8272 1.38183 21.9237 1.49969 21.9237H22.4997C22.6175 21.9237 22.714 21.8272 22.714 21.7094V19.9951C22.714 19.8772 22.6175 19.7808 22.4997 19.7808ZM22.4997 11.4237H1.49969C1.38183 11.4237 1.2854 11.5201 1.2854 11.638V13.3522C1.2854 13.4701 1.38183 13.5665 1.49969 13.5665H22.4997C22.6175 13.5665 22.714 13.4701 22.714 13.3522V11.638C22.714 11.5201 22.6175 11.4237 22.4997 11.4237Z" fill="currentColor" fill-opacity="0.85"/>
</svg>